<?xml version="1.0" standalone="no"?>
<!DOCTYPE svg PUBLIC "-//W3C//DTD SVG 20010904//EN"
 "http://www.w3.org/TR/2001/REC-SVG-20010904/DTD/svg10.dtd">
<svg version="1.0" xmlns="http://www.w3.org/2000/svg"
 width="1280.000000pt" height="1280.000000pt" viewBox="0 0 1280.000000 1280.000000"
 preserveAspectRatio="xMidYMid meet">
<metadata>
Created by potrace 1.15, written by Peter Selinger 2001-2017
</metadata>
<g transform="translate(0.000000,1280.000000) scale(0.100000,-0.100000)"
fill="#000000" stroke="none">
<path d="M9830 12615 c0 -117 4 -185 10 -185 6 0 10 -28 10 -64 0 -56 3 -66
20 -71 11 -3 20 -15 20 -26 0 -10 5 -19 11 -19 8 0 9 -22 4 -71 l-7 -72 31 6
c30 6 31 5 31 -28 0 -33 1 -34 26 -25 35 14 34 14 34 -28 0 -38 0 -38 35 -34
l35 4 0 -46 0 -46 -469 0 c-408 0 -470 -2 -475 -15 -3 -8 -17 -15 -31 -15 -14
0 -25 -4 -25 -8 0 -4 -29 -6 -65 -4 -47 3 -65 1 -65 -8 0 -13 -77 -10 -112 5
-16 6 -18 1 -18 -34 l0 -41 -60 7 -60 6 0 -33 c0 -30 -2 -32 -31 -28 l-31 5 7
-69 c4 -42 3 -68 -3 -68 -5 0 -12 -14 -16 -31 -4 -23 -10 -30 -22 -25 -14 6
-16 -1 -9 -59 6 -55 4 -65 -9 -65 -14 0 -16 -18 -16 -125 0 -107 2 -125 16
-125 13 0 15 -10 9 -65 -7 -58 -5 -65 9 -59 12 5 18 -2 22 -25 4 -17 11 -31
16 -31 6 0 7 -26 3 -70 l-7 -69 31 9 c31 8 31 8 31 -27 l0 -36 60 6 60 7 0
-41 c0 -35 3 -40 18 -34 20 8 126 25 160 25 14 0 22 -6 22 -16 0 -12 7 -15 25
-12 14 3 25 1 25 -3 0 -5 43 -9 95 -9 78 0 95 -3 95 -15 0 -12 17 -15 95 -15
78 0 95 3 95 15 0 13 42 15 315 15 l315 0 0 -61 0 -61 -35 4 c-34 4 -35 3 -35
-30 0 -32 -2 -34 -30 -30 -28 4 -30 3 -30 -28 0 -32 -1 -33 -31 -27 l-31 6 7
-73 c5 -52 4 -71 -4 -66 -7 5 -11 -2 -11 -18 0 -16 -7 -27 -20 -31 -17 -5 -20
-15 -20 -71 0 -36 -4 -64 -10 -64 -5 0 -10 -11 -10 -25 l0 -25 -155 0 c-136 0
-155 -2 -155 -16 0 -14 -9 -15 -67 -9 -38 4 -94 8 -125 8 l-58 2 0 34 0 34
-59 -6 c-62 -7 -71 -1 -71 44 0 15 -5 17 -30 13 -23 -5 -30 -3 -30 10 0 12 -7
14 -30 10 -27 -6 -30 -4 -30 20 l0 26 -70 -6 c-46 -5 -70 -3 -70 3 0 6 -11 14
-25 17 -15 4 -25 14 -25 24 0 15 -9 17 -65 14 -56 -3 -65 -1 -65 13 0 13 -6
16 -25 13 -14 -3 -25 -1 -25 5 0 5 -26 8 -65 5 -57 -3 -65 -2 -65 14 0 17 -16
18 -250 18 -242 0 -250 -1 -250 -20 0 -18 -5 -19 -65 -13 -41 4 -65 2 -65 -4
0 -6 -11 -8 -25 -5 -19 3 -25 0 -25 -13 0 -14 -6 -16 -27 -11 -16 4 -45 9 -65
13 -34 5 -38 9 -38 36 l0 30 -60 -6 -60 -7 0 39 0 40 -32 -10 c-45 -12 -98
-11 -98 2 0 8 -20 10 -65 7 -36 -3 -65 -2 -65 3 0 5 -11 9 -25 9 -16 0 -25 6
-25 15 0 13 -48 15 -375 15 -327 0 -375 -2 -375 -15 0 -14 -64 -21 -162 -18
-19 1 -28 -4 -28 -14 0 -11 -7 -14 -25 -11 -21 4 -25 1 -25 -18 0 -13 -4 -24
-10 -24 -5 0 -10 -6 -10 -12 0 -10 -23 -12 -90 -10 -49 2 -90 8 -90 13 0 5
-13 9 -30 9 -25 0 -30 4 -30 24 0 18 -5 23 -17 21 -67 -13 -113 -14 -113 -1 0
15 -50 26 -127 26 -40 0 -53 4 -53 15 0 13 -52 15 -405 15 -353 0 -405 -2
-405 -15 0 -12 -15 -15 -67 -17 -38 -1 -80 -1 -95 0 -20 2 -28 -3 -28 -14 0
-12 -7 -15 -25 -12 -21 4 -25 1 -25 -18 0 -13 -4 -24 -10 -24 -5 0 -10 -6 -10
-14 0 -11 -8 -12 -37 -5 -68 15 -73 13 -73 -31 0 -39 -1 -40 -35 -40 -22 0
-35 5 -35 13 0 9 -10 12 -30 9 -19 -3 -30 0 -30 8 0 8 -9 11 -26 7 -20 -3 -28
0 -31 14 -5 18 -21 19 -344 19 -319 0 -339 -1 -339 -18 0 -16 -8 -17 -70 -14
-41 3 -70 0 -70 -5 0 -6 -11 -8 -25 -5 -19 3 -25 0 -25 -13 0 -15 -7 -17 -47
-12 -27 2 -56 8 -65 12 -15 6 -18 2 -18 -21 0 -56 -17 -62 -102 -38 -15 5 -18
-1 -18 -37 0 -41 0 -41 -30 -35 -25 5 -30 2 -30 -14 0 -11 -4 -20 -10 -20 -5
0 -10 -7 -10 -15 0 -9 -6 -12 -15 -9 -11 5 -15 -2 -15 -26 0 -31 -1 -32 -36
-28 l-36 4 7 -64 c5 -45 4 -62 -4 -58 -6 4 -11 0 -11 -8 0 -12 -10 -16 -35
-16 -25 0 -35 4 -35 15 0 10 -8 15 -22 14 -13 -1 -53 -1 -90 -1 -53 2 -68 5
-68 17 0 13 -21 15 -125 15 -104 0 -125 -2 -125 -15 0 -11 -13 -15 -52 -15
-76 0 -128 -11 -128 -26 0 -12 -14 -12 -101 1 -23 3 -28 0 -32 -25 -5 -23 -10
-27 -27 -23 -14 4 -20 1 -20 -12 0 -15 -6 -17 -35 -12 -26 4 -35 2 -35 -9 0
-8 -10 -14 -25 -14 -14 0 -25 -5 -25 -10 0 -7 -13 -8 -35 -4 -29 5 -35 3 -35
-11 0 -11 -6 -15 -17 -11 -10 3 -39 8 -65 12 l-48 6 0 -42 c0 -33 -3 -41 -15
-36 -8 3 -37 8 -65 12 l-50 7 0 -35 c0 -33 -1 -34 -31 -30 l-32 5 7 -56 c7
-53 -1 -134 -11 -123 -11 11 -33 -24 -33 -52 l0 -30 -102 -7 c-73 -5 -103 -4
-106 4 -5 15 -312 16 -312 0 0 -7 -21 -10 -60 -7 -50 2 -60 0 -60 -13 0 -19
-23 -31 -45 -23 -9 4 -15 0 -15 -10 0 -11 -9 -16 -30 -16 -20 0 -30 -5 -30
-15 0 -9 -12 -18 -30 -21 -16 -4 -30 -13 -30 -21 0 -11 -8 -12 -35 -7 -33 6
-35 5 -35 -20 0 -16 -4 -25 -10 -21 -5 3 -10 -1 -10 -10 0 -12 -5 -15 -16 -11
-9 3 -33 9 -55 12 l-39 7 0 -42 c0 -39 -1 -41 -25 -35 -19 5 -25 2 -25 -11 0
-23 -27 -48 -45 -41 -12 4 -15 -4 -15 -35 0 -43 -3 -45 -52 -24 -15 6 -18 1
-18 -34 0 -40 -1 -40 -30 -34 -29 5 -30 4 -30 -31 0 -40 1 -40 -35 -26 l-27
10 7 -76 c6 -56 5 -75 -4 -70 -6 4 -11 0 -11 -9 0 -21 -24 -45 -44 -45 -14 0
-16 -29 -16 -245 l0 -245 25 0 c14 0 25 -5 25 -11 0 -5 5 -7 11 -3 8 5 9 -11
4 -56 l-7 -63 47 7 c26 4 53 10 61 13 8 3 15 -7 19 -31 l7 -36 54 6 c46 6 54
4 54 -9 0 -10 6 -14 15 -11 8 4 15 2 15 -4 0 -6 56 -9 145 -8 80 0 145 5 145
9 0 5 29 5 65 2 57 -7 65 -5 65 10 0 14 9 16 60 13 33 -1 60 1 60 5 0 17 29
37 44 31 11 -4 16 0 16 11 0 13 7 16 30 13 21 -3 30 0 30 9 0 22 23 40 42 35
12 -3 18 1 18 12 0 13 8 15 48 10 26 -3 55 -7 65 -9 12 -2 17 3 17 21 0 21 5
24 35 24 19 0 35 5 35 11 0 7 10 9 25 7 21 -4 25 -1 25 18 0 13 5 24 10 24 6
0 10 7 10 16 0 12 6 15 23 10 12 -4 37 -9 54 -13 32 -5 33 -5 33 31 0 33 2 36
30 36 26 0 30 4 30 28 0 26 3 28 31 24 l31 -5 -7 73 c-5 52 -4 71 4 66 7 -5
11 2 11 18 0 16 7 27 20 31 17 6 20 15 20 76 l0 69 31 0 c34 0 59 -20 59 -47
0 -17 15 -18 244 -18 l244 0 6 37 c5 28 10 35 23 33 10 -2 35 -6 55 -9 35 -4
38 -3 38 20 0 13 5 24 10 24 6 0 10 7 10 15 0 15 32 15 91 -1 12 -3 18 5 23
36 7 44 20 49 84 31 31 -9 32 -9 32 21 0 28 2 30 30 26 20 -3 30 0 30 9 0 15
14 15 83 4 l47 -8 0 40 c0 38 1 39 28 33 15 -4 44 -9 65 -13 l37 -6 0 38 c0
36 1 37 30 32 28 -6 30 -4 30 23 0 17 -4 30 -10 30 -5 0 -10 14 -10 30 0 19 5
30 14 30 8 0 16 4 18 9 2 5 56 12 121 16 107 6 117 5 117 -10 0 -13 6 -16 25
-13 14 3 25 2 25 -1 0 -3 142 -6 315 -6 173 0 315 4 315 9 0 4 29 5 65 1 57
-6 65 -5 65 10 0 15 8 16 60 10 56 -7 60 -6 60 14 0 12 5 21 10 21 6 0 10 7
10 16 0 10 6 14 15 10 10 -4 15 1 15 14 0 19 14 25 53 22 9 -1 17 5 17 13 0
18 1 18 34 5 25 -9 26 -8 26 31 0 40 1 40 30 34 30 -6 30 -6 30 35 0 41 0 41
30 35 26 -6 30 -4 30 14 0 18 6 21 40 21 33 0 40 -3 40 -20 0 -20 4 -20 95
-14 87 6 95 5 95 -11 0 -13 6 -16 25 -13 14 3 25 1 25 -4 0 -6 47 -7 125 -3
122 7 125 7 125 -14 0 -20 1 -20 315 -18 291 2 315 3 315 19 0 14 6 16 30 12
20 -5 30 -3 30 6 0 8 9 11 25 8 18 -4 25 -1 25 10 0 12 11 14 65 9 65 -6 65
-6 65 19 0 23 3 25 27 20 14 -4 29 -3 32 2 3 6 48 11 99 13 l92 4 0 -38 c0
-32 3 -37 18 -33 9 3 38 8 65 12 41 5 47 4 47 -11 0 -14 6 -16 30 -11 17 3 30
1 30 -4 0 -6 14 -10 30 -10 20 0 30 -5 30 -15 0 -13 45 -15 345 -15 339 0 345
0 345 20 0 17 5 19 25 14 16 -4 25 -2 25 6 0 9 17 11 65 5 57 -6 65 -5 65 11
0 14 6 16 38 10 20 -3 63 -6 95 -6 l57 0 0 -36 0 -36 46 7 c26 3 53 9 60 12 9
3 15 -7 20 -36 4 -23 7 -41 8 -41 1 0 16 4 34 9 24 7 32 7 32 -4 0 -7 11 -16
25 -19 16 -4 25 -13 25 -26 0 -16 5 -19 28 -15 100 15 112 15 112 -1 0 -8 6
-14 12 -12 15 5 38 -15 38 -34 0 -10 15 -12 60 -10 51 3 60 1 60 -13 0 -14 8
-16 65 -10 36 4 65 3 65 -1 0 -5 126 -9 280 -9 154 0 280 4 280 9 0 4 11 6 25
4 17 -4 25 -1 25 8 0 16 36 18 143 7 l69 -6 -7 -67 -7 -67 31 5 c30 4 31 3 31
-33 0 -41 -3 -41 93 -19 26 6 27 5 27 -36 0 -36 3 -41 18 -35 33 12 182 19
182 7 0 -6 25 -14 55 -17 37 -5 55 -12 55 -21 0 -11 16 -14 65 -14 53 0 65 -3
65 -16 0 -12 7 -15 30 -12 27 4 30 2 30 -22 0 -26 1 -27 48 -19 68 11 82 11
82 -5 0 -9 25 -15 92 -20 123 -8 278 -8 278 2 0 4 31 6 70 4 66 -3 70 -5 70
-28 0 -15 6 -24 15 -24 9 0 18 -12 21 -30 4 -16 11 -27 17 -23 6 4 7 -20 3
-69 l-7 -75 30 5 c30 4 31 3 31 -33 0 -41 -3 -41 93 -19 26 6 27 5 27 -36 0
-36 2 -41 18 -35 9 4 37 9 62 11 25 3 62 6 83 8 28 3 37 0 37 -11 0 -10 6 -14
18 -11 19 5 42 -13 42 -35 0 -9 9 -12 30 -9 23 3 30 1 30 -13 0 -12 6 -16 18
-13 18 5 42 -13 42 -31 0 -6 15 -7 35 -4 29 5 35 3 35 -12 0 -12 6 -16 18 -13
19 5 42 -13 42 -33 0 -7 10 -9 30 -5 21 4 30 2 30 -8 0 -7 14 -16 30 -19 18
-4 30 -13 30 -22 0 -12 13 -15 64 -15 43 0 66 -4 68 -12 4 -10 53 -14 187 -16
195 -4 251 1 251 23 0 7 8 12 18 10 73 -15 92 -14 92 5 0 51 10 54 108 34 19
-4 22 0 22 26 0 16 -4 30 -10 30 -5 0 -10 14 -10 30 0 20 5 30 15 30 8 0 15 4
15 9 0 5 9 7 21 4 20 -6 21 -4 14 62 -6 49 -5 66 4 61 8 -5 11 36 11 153 0
101 -4 161 -10 161 -5 0 -10 13 -10 30 0 22 -4 28 -15 24 -11 -5 -17 3 -21 25
-4 17 -11 31 -16 31 -6 0 -7 27 -3 71 l7 72 -31 -6 c-30 -6 -31 -5 -31 26 0
32 -1 33 -35 29 -34 -4 -35 -3 -35 32 0 27 -3 34 -15 30 -19 -8 -45 19 -45 45
0 14 -5 19 -15 15 -19 -8 -45 19 -45 45 0 17 -4 20 -30 15 -29 -6 -30 -6 -30
34 l0 41 -32 -10 c-49 -14 -78 -11 -78 7 0 8 -4 12 -10 9 -6 -4 -10 5 -10 20
0 24 -3 26 -30 20 -24 -5 -30 -3 -30 10 0 12 -5 15 -16 11 -16 -6 -44 15 -44
33 0 6 -14 7 -35 4 -28 -4 -35 -2 -35 10 0 10 -6 14 -15 11 -8 -4 -15 -1 -15
5 0 6 -7 11 -15 11 -8 0 -15 7 -15 16 0 12 -6 15 -25 10 -18 -5 -25 -2 -25 8
0 10 -18 16 -65 21 -45 5 -65 12 -65 21 0 11 -24 14 -120 14 -100 0 -120 -2
-120 -15 0 -10 -11 -15 -35 -15 l-35 0 0 60 0 60 30 -6 c29 -6 30 -5 30 31 0
36 1 37 30 33 29 -4 30 -3 30 34 0 40 8 45 41 28 17 -10 19 -7 19 30 0 41 8
47 41 30 17 -10 19 -7 19 30 l0 41 35 -7 c35 -6 35 -6 35 31 0 36 1 37 30 33
29 -4 30 -3 30 33 0 37 0 37 30 29 30 -9 30 -8 30 31 0 41 8 46 41 29 17 -10
19 -7 19 30 l0 41 35 -7 c35 -6 35 -6 35 30 0 34 1 35 30 30 29 -6 30 -6 30
34 0 40 0 41 30 32 30 -9 30 -8 30 31 0 41 8 46 41 29 17 -10 19 -7 19 30 l0
41 35 -7 c35 -6 35 -6 35 30 0 34 1 35 30 30 29 -6 30 -5 30 31 0 36 1 37 30
33 29 -4 30 -3 30 33 0 37 0 37 30 29 30 -9 30 -8 30 31 0 41 8 46 41 29 17
-10 19 -7 19 30 l0 41 35 -7 c35 -6 35 -6 35 30 0 40 -1 40 35 26 l27 -10 -7
76 c-5 51 -4 75 2 71 6 -4 13 7 17 23 3 18 12 30 21 30 12 0 15 13 15 60 0 33
4 60 10 60 6 0 10 48 10 125 0 77 -4 125 -10 125 -6 0 -10 27 -10 60 0 47 -3
60 -15 60 -9 0 -18 12 -21 30 -4 16 -11 27 -17 23 -6 -4 -7 20 -3 69 l7 75
-30 -5 c-29 -4 -31 -2 -31 28 0 31 -1 32 -35 26 l-35 -7 0 41 c0 37 -2 40 -19
30 -33 -17 -41 -12 -41 29 0 39 0 40 -30 31 -30 -8 -30 -8 -30 29 0 36 -1 37
-30 33 -29 -4 -30 -3 -30 33 0 36 -1 37 -30 32 -29 -6 -30 -6 -30 34 0 35 -3
40 -17 34 -50 -21 -53 -19 -53 24 0 38 -2 41 -19 31 -33 -17 -41 -12 -41 29 0
39 0 40 -30 31 -30 -9 -30 -8 -30 32 0 40 -1 40 -30 35 -29 -6 -30 -5 -30 29
0 36 0 36 -35 30 l-35 -7 0 41 c0 37 -2 40 -19 30 -33 -17 -41 -12 -41 29 0
39 0 40 -30 31 -30 -8 -30 -8 -30 29 0 36 -1 37 -30 33 -29 -4 -30 -3 -30 33
0 37 0 37 -35 31 l-35 -7 0 41 c0 37 -2 40 -19 30 -33 -17 -41 -12 -41 29 l0
40 -32 -10 c-18 -5 -34 -9 -35 -9 -2 0 -3 18 -3 40 l0 40 -280 0 c-273 0 -280
-1 -280 -20 0 -13 11 -25 33 -34 19 -8 296 -279 668 -652 564 -567 639 -645
659 -694 28 -69 23 -131 -19 -203 -21 -36 -226 -248 -663 -684 -690 -689 -649
-654 -767 -655 -76 0 -122 17 -168 64 -89 93 -107 183 -58 285 24 48 91 120
407 437 208 209 378 386 378 393 0 8 -7 16 -15 19 -8 4 -432 7 -942 8 l-928 1
-46 27 c-90 54 -139 136 -139 232 0 55 4 67 41 122 48 70 92 103 152 115 23 5
453 8 955 8 628 -1 917 2 924 9 7 7 4 19 -10 39 -11 15 -182 190 -381 387
-413 412 -426 429 -419 544 3 56 10 76 38 119 23 33 50 60 78 74 26 14 42 29
42 41 0 17 -14 18 -245 18 l-245 0 0 -185z m-3964 -2391 c57 -42 87 -91 92
-148 5 -65 -12 -107 -69 -162 l-40 -39 -272 -8 c-150 -4 -333 -12 -407 -18
-74 -7 -154 -11 -177 -10 -98 3 -190 97 -187 191 3 72 47 139 114 173 51 25
66 28 220 33 91 4 167 8 170 11 2 2 122 3 266 1 247 -3 264 -4 290 -24z m880
1 c115 -8 227 -17 249 -20 22 -3 111 -10 199 -15 127 -8 165 -14 190 -29 84
-52 120 -133 98 -219 -17 -63 -59 -114 -110 -131 -34 -13 -72 -13 -264 -2
-358 20 -602 40 -639 52 -105 35 -158 162 -109 258 28 56 112 118 161 120 9 1
110 -6 225 -14z m-2404 -126 c73 -52 105 -143 79 -229 -17 -58 -87 -117 -147
-125 -27 -3 -87 -15 -134 -26 -47 -11 -117 -24 -155 -30 -39 -5 -110 -20 -160
-33 -49 -13 -124 -31 -165 -40 -41 -9 -99 -22 -129 -31 -50 -14 -56 -13 -103
7 -93 40 -148 133 -129 218 20 89 118 161 246 181 33 6 112 23 175 40 63 16
126 29 140 29 14 0 72 11 129 25 194 47 299 51 353 14z m3913 -34 c66 -9 163
-24 215 -35 52 -11 145 -27 205 -36 128 -19 238 -54 271 -85 35 -32 64 -99 64
-145 0 -82 -108 -193 -188 -194 -18 0 -78 11 -135 24 -56 14 -131 28 -167 31
-36 4 -87 13 -115 20 -52 14 -212 39 -327 50 -81 9 -151 50 -185 110 -38 67
-39 96 -4 170 27 59 35 68 83 91 59 28 68 28 283 -1z m1396 -294 c31 -10 75
-22 99 -26 24 -4 62 -15 85 -25 22 -10 74 -25 114 -34 41 -9 86 -23 100 -31
15 -7 61 -23 102 -34 124 -34 240 -79 266 -103 44 -41 76 -116 70 -166 -6 -52
-47 -116 -97 -150 -31 -22 -43 -24 -112 -19 -53 3 -94 13 -133 31 -31 14 -72
28 -93 32 -20 3 -64 17 -97 30 -33 12 -89 30 -125 39 -36 9 -82 23 -104 31
-21 8 -70 21 -108 30 -71 14 -157 52 -192 82 -10 9 -27 35 -37 57 -41 88 -9
187 76 243 59 38 105 41 186 13z m-6795 -50 c78 -55 105 -128 81 -212 -27 -92
-76 -125 -282 -191 -33 -11 -71 -25 -85 -33 -14 -7 -57 -23 -97 -34 -40 -12
-75 -26 -78 -31 -3 -5 -31 -16 -62 -25 -32 -9 -75 -26 -96 -37 -70 -35 -190
-70 -224 -65 -53 9 -122 56 -143 98 -24 46 -26 134 -6 184 18 41 97 96 187
129 73 27 153 59 219 88 25 11 70 27 100 35 30 8 65 21 77 29 12 8 47 20 76
28 30 8 74 23 98 34 58 26 73 29 140 31 47 1 62 -4 95 -28z m8214 -456 c43
-15 166 -71 220 -101 14 -7 41 -21 60 -29 19 -9 42 -20 50 -26 8 -5 42 -23 76
-39 33 -15 66 -36 73 -44 8 -9 19 -16 26 -16 7 0 35 -15 62 -32 27 -18 67 -42
89 -53 82 -42 154 -137 154 -204 0 -33 -30 -102 -58 -133 -20 -23 -118 -68
-146 -67 -24 0 -113 45 -218 109 -79 47 -134 78 -213 118 -27 13 -57 31 -65
38 -9 7 -35 20 -59 29 -23 8 -54 23 -69 33 -15 11 -38 22 -52 25 -49 12 -151
87 -166 123 -18 43 -18 137 0 172 30 57 108 109 166 111 14 0 45 -6 70 -14z
m-9659 -124 c67 -30 114 -90 125 -159 5 -31 1 -51 -17 -87 -32 -64 -55 -85
-146 -132 -83 -43 -154 -82 -243 -132 -30 -17 -80 -44 -110 -61 -30 -17 -78
-45 -107 -63 -204 -127 -188 -120 -253 -115 -52 4 -65 9 -106 44 -79 67 -97
164 -45 246 27 42 150 138 178 138 6 0 16 7 24 16 7 9 38 29 68 45 31 17 79
43 106 58 28 16 72 40 100 55 27 15 61 36 75 45 14 10 39 23 55 28 17 6 48 22
69 37 21 14 46 26 55 26 9 1 27 7 41 15 35 20 80 18 131 -4z"/>
<path d="M7030 8905 c0 -14 -64 -21 -162 -18 -19 1 -28 -4 -28 -14 0 -11 -7
-14 -25 -11 -21 4 -25 1 -25 -18 0 -13 -4 -24 -10 -24 -5 0 -10 -6 -10 -13 0
-11 -11 -12 -56 -4 -30 5 -57 8 -58 6 -2 -2 -6 -22 -9 -44 -5 -29 -2 -46 11
-62 16 -22 27 -23 227 -32 365 -18 847 -55 975 -76 47 -8 150 -21 230 -30 80
-9 168 -22 195 -30 48 -13 135 -27 240 -40 28 -3 70 -13 95 -20 25 -8 90 -23
145 -34 113 -21 278 -61 375 -91 36 -11 94 -27 130 -35 36 -9 81 -22 100 -31
19 -8 67 -23 105 -33 39 -10 93 -27 120 -38 28 -12 73 -28 100 -38 241 -83
468 -183 731 -321 60 -31 120 -65 133 -75 13 -11 28 -19 33 -19 4 0 32 -15 61
-33 28 -18 59 -37 68 -42 246 -152 546 -397 703 -575 144 -163 144 -163 45
-280 -188 -225 -548 -560 -831 -772 -187 -140 -263 -194 -373 -263 -38 -24
-81 -52 -95 -63 -14 -11 -43 -29 -65 -41 -22 -12 -65 -37 -95 -56 -30 -19 -71
-42 -90 -52 -19 -9 -42 -23 -50 -29 -16 -13 -110 -64 -175 -96 -22 -10 -51
-25 -65 -33 -31 -18 -157 -80 -265 -130 -44 -20 -107 -50 -139 -66 -32 -16
-65 -29 -73 -29 -7 0 -39 -13 -70 -30 -31 -16 -64 -30 -73 -30 -9 0 -37 -10
-61 -23 -24 -13 -66 -30 -94 -37 -27 -8 -64 -22 -80 -31 -17 -10 -57 -24 -90
-32 -33 -8 -78 -23 -100 -34 -22 -11 -65 -26 -95 -33 -30 -7 -73 -21 -95 -30
-22 -9 -58 -20 -80 -24 -22 -4 -78 -19 -125 -35 -47 -16 -107 -33 -135 -39
-27 -6 -93 -22 -145 -35 -174 -45 -314 -77 -385 -87 -38 -6 -106 -19 -150 -29
-44 -11 -125 -25 -180 -31 -55 -6 -129 -18 -165 -26 -59 -13 -421 -54 -477
-54 -50 0 -5 74 51 84 19 4 45 15 57 25 13 10 42 28 64 40 41 23 60 36 159
111 32 25 72 55 88 66 107 79 297 291 421 470 54 79 67 102 145 250 83 158
147 346 193 569 32 156 33 167 33 410 1 235 -1 259 -28 400 -16 83 -41 189
-57 236 -16 48 -29 93 -29 100 0 8 -12 37 -25 64 -14 28 -25 54 -25 58 0 13
-98 207 -140 277 -21 36 -46 78 -55 93 -32 56 -142 193 -228 285 -150 160
-361 332 -497 406 -46 24 -74 50 -81 74 -7 23 -49 -22 -49 -52 0 -16 -5 -26
-15 -26 -10 0 -15 -11 -15 -35 0 -27 -4 -35 -19 -35 -10 0 -39 -3 -65 -6 -37
-6 -46 -4 -46 9 0 8 -11 18 -25 21 -14 4 -25 13 -25 21 0 13 -11 14 -65 9 -58
-6 -65 -5 -65 11 0 13 -6 16 -25 13 -14 -3 -25 -1 -25 3 0 5 -29 9 -65 9 -51
0 -65 3 -65 15 0 13 -55 15 -435 15 -380 0 -435 -2 -435 -15 0 -12 -14 -15
-65 -15 -36 0 -65 -4 -65 -9 0 -4 -11 -6 -25 -3 -19 3 -25 0 -25 -13 0 -16 -7
-17 -65 -11 -54 5 -65 4 -65 -9 0 -8 -11 -17 -25 -21 -14 -3 -25 -13 -25 -21
0 -11 -9 -14 -35 -11 -19 2 -35 0 -35 -5 0 -16 -31 -39 -45 -33 -9 3 -15 -1
-15 -10 0 -12 -7 -15 -30 -12 -24 4 -30 1 -30 -13 0 -11 -11 -20 -30 -24 -16
-4 -30 -11 -30 -17 0 -6 -13 -8 -34 -5 -33 5 -34 4 -40 -34 l-6 -40 -53 7
c-28 4 -54 9 -57 11 -3 3 -7 47 -8 99 -5 110 -9 113 -88 62 -182 -119 -437
-380 -568 -583 -22 -33 -47 -72 -57 -86 -32 -47 -148 -283 -168 -339 -10 -30
-25 -73 -34 -95 -31 -81 -76 -274 -92 -390 -26 -193 -30 -380 -11 -540 26
-226 32 -254 69 -380 67 -222 103 -307 205 -490 148 -265 366 -513 617 -700
92 -69 230 -155 249 -155 37 0 102 -70 78 -84 -12 -6 -272 23 -392 44 -63 11
-161 27 -216 35 -56 8 -114 19 -128 25 -15 5 -78 19 -141 30 -63 10 -130 26
-149 34 -19 8 -72 22 -117 31 -45 9 -100 25 -123 35 -23 10 -62 21 -86 25 -25
4 -79 19 -120 35 -41 15 -97 35 -125 45 -148 51 -318 119 -373 149 -15 8 -48
22 -74 32 -26 9 -53 23 -59 30 -6 8 -18 14 -25 14 -22 0 -231 112 -369 198
-27 17 -72 45 -100 62 -27 17 -82 54 -121 83 -39 29 -92 68 -119 87 -318 230
-672 625 -853 950 -56 99 -122 231 -122 241 0 5 -14 37 -30 71 -31 62 -37 106
-20 137 24 46 296 259 575 451 88 61 493 290 513 290 5 0 20 8 33 19 13 10 41
24 61 30 20 7 52 23 71 35 19 13 52 29 73 36 22 7 46 19 55 26 8 8 40 22 70
33 30 10 68 26 84 35 56 30 370 151 525 203 25 8 70 24 100 35 30 11 84 28
120 37 36 10 79 25 95 33 17 9 56 21 87 27 31 5 90 21 130 35 40 13 101 29
135 36 34 6 79 18 98 26 20 8 82 23 138 33 56 11 116 24 132 31 17 6 80 20
140 30 61 11 163 31 229 45 65 14 134 25 152 25 31 0 34 2 34 31 0 26 -3 31
-20 26 -11 -3 -20 -1 -20 5 0 5 -5 6 -11 2 -8 -5 -9 11 -4 56 l7 63 -47 -7
c-26 -4 -54 -10 -61 -13 -9 -3 -15 8 -20 37 -5 29 -11 39 -20 36 -8 -4 -21 -9
-29 -12 -9 -4 -15 0 -15 9 0 19 -80 31 -144 22 -42 -7 -46 -6 -46 14 0 20 -5
21 -120 21 -108 0 -120 -2 -120 -18 0 -16 -8 -17 -70 -14 -41 3 -70 0 -70 -5
0 -6 -11 -8 -25 -5 -19 3 -25 0 -25 -13 0 -15 -8 -17 -64 -13 -62 4 -65 3 -71
-20 -4 -18 -11 -23 -25 -19 -13 3 -20 0 -20 -9 0 -9 -11 -14 -30 -14 -16 0
-30 -4 -30 -9 0 -5 -14 -12 -30 -16 -17 -4 -30 -11 -30 -16 0 -6 -15 -7 -35
-3 -27 5 -35 3 -35 -8 0 -11 -14 -13 -65 -10 -55 4 -65 2 -65 -12 0 -8 -11
-18 -25 -22 -14 -3 -25 -13 -25 -21 0 -11 -9 -14 -35 -11 -24 3 -35 0 -35 -9
0 -8 -12 -13 -30 -13 -16 0 -30 -5 -30 -11 0 -7 -12 -10 -30 -7 -22 3 -30 0
-30 -10 0 -12 -12 -13 -65 -7 -46 5 -65 3 -65 -5 0 -19 -29 -42 -45 -36 -9 3
-15 0 -15 -9 0 -10 -10 -15 -30 -15 -16 0 -30 -4 -30 -10 0 -13 -78 -33 -107
-27 -16 3 -23 0 -23 -11 0 -11 -12 -14 -65 -10 -59 4 -64 2 -67 -17 -2 -12
-12 -21 -25 -23 -13 -2 -23 -8 -23 -13 0 -5 -16 -9 -35 -9 -24 0 -35 -5 -35
-15 0 -8 -11 -17 -25 -21 -14 -3 -25 -13 -25 -21 0 -11 -8 -12 -35 -7 -24 4
-35 2 -35 -5 0 -20 -23 -38 -42 -33 -12 3 -18 -1 -18 -13 0 -14 -7 -16 -30
-13 -20 3 -30 0 -30 -9 0 -7 -7 -13 -15 -13 -8 0 -15 -5 -15 -11 0 -6 -7 -9
-15 -5 -9 3 -15 0 -15 -10 0 -13 -8 -15 -35 -12 -28 3 -35 1 -35 -13 0 -19
-33 -34 -50 -24 -5 3 -10 -1 -10 -9 0 -11 -9 -16 -30 -16 -19 0 -30 -5 -30
-14 0 -8 -13 -17 -30 -21 -17 -4 -30 -13 -30 -21 0 -12 -8 -13 -35 -8 -24 4
-35 2 -35 -5 0 -20 -23 -38 -42 -33 -12 3 -18 -1 -18 -12 0 -12 -7 -14 -30 -9
-20 3 -30 1 -30 -6 0 -20 -23 -38 -42 -33 -12 3 -18 -1 -18 -13 0 -15 -6 -17
-35 -12 -29 5 -35 3 -35 -13 0 -20 -23 -32 -45 -24 -10 4 -15 0 -15 -11 0 -13
-6 -15 -30 -10 -27 6 -30 4 -30 -19 0 -14 -4 -26 -10 -26 -5 0 -10 -7 -10 -15
0 -15 -32 -15 -91 1 -12 3 -18 -5 -23 -34 l-6 -39 -42 8 c-74 14 -78 13 -78
-27 0 -33 -2 -36 -25 -32 -23 5 -25 2 -25 -33 l0 -38 -32 10 c-18 5 -34 9 -35
9 -2 0 -3 -18 -3 -41 0 -33 -3 -40 -15 -35 -8 3 -22 9 -30 12 -12 5 -15 -2
-15 -36 0 -41 0 -42 -30 -35 -29 6 -30 5 -30 -29 0 -34 -1 -35 -30 -29 -29 5
-30 4 -30 -31 0 -33 -2 -36 -30 -36 -27 0 -30 -3 -30 -30 0 -30 -1 -31 -34
-24 l-35 6 2 -86 c2 -89 -8 -113 -42 -101 -10 4 -12 -8 -6 -65 6 -62 5 -69 -9
-64 -14 5 -16 -11 -16 -156 0 -145 2 -161 16 -156 14 6 16 -1 9 -60 -7 -64 -6
-66 14 -59 19 6 21 2 21 -29 0 -20 5 -36 10 -36 6 0 10 -14 10 -31 0 -26 3
-31 20 -26 13 3 20 0 20 -10 0 -10 6 -13 16 -9 14 5 15 -1 9 -55 -7 -60 -7
-62 14 -56 11 3 21 1 21 -4 0 -5 7 -9 16 -9 14 0 15 -9 9 -58 l-7 -59 31 5
c30 4 31 3 31 -32 0 -34 1 -35 26 -26 35 14 34 14 34 -28 0 -37 1 -38 30 -34
29 4 30 3 30 -32 0 -20 1 -36 3 -36 1 0 17 4 35 9 l32 10 0 -40 c0 -40 1 -40
30 -34 30 6 30 6 30 -35 0 -37 2 -40 19 -30 33 17 41 12 41 -28 0 -37 1 -38
30 -34 29 4 30 3 30 -32 0 -20 1 -36 3 -36 1 0 17 4 35 9 l32 10 0 -40 c0 -41
8 -46 41 -29 17 10 19 7 19 -30 0 -41 0 -41 30 -35 30 6 30 6 30 -35 0 -37 2
-40 19 -30 33 17 41 11 41 -30 0 -39 1 -39 30 -33 29 5 30 4 30 -31 0 -39 14
-45 51 -26 17 10 19 7 19 -30 0 -41 0 -41 30 -35 30 6 30 6 30 -35 0 -37 2
-40 19 -30 33 17 41 11 41 -30 0 -39 1 -39 30 -33 29 5 30 4 30 -29 0 -33 2
-34 30 -30 29 4 30 3 30 -32 0 -40 6 -42 73 -27 l37 9 6 -39 c6 -33 10 -38 28
-34 79 16 96 16 96 0 0 -8 5 -15 10 -15 6 0 10 -10 10 -23 0 -20 4 -23 30 -19
23 3 30 0 30 -13 0 -11 5 -15 15 -11 22 8 45 -4 45 -23 0 -14 7 -16 35 -13 28
3 35 1 35 -12 0 -10 5 -14 10 -11 11 7 40 -18 40 -34 0 -6 14 -7 35 -4 29 5
35 3 35 -12 0 -12 6 -16 18 -13 19 5 42 -13 42 -33 0 -7 10 -9 30 -5 21 4 30
2 30 -8 0 -7 14 -16 30 -19 18 -4 30 -13 30 -22 0 -11 10 -15 35 -15 25 0 35
-4 35 -16 0 -8 5 -12 10 -9 17 11 50 -5 50 -24 0 -14 6 -17 30 -13 23 3 30 0
30 -13 0 -11 5 -15 16 -11 16 6 44 -15 44 -33 0 -6 14 -7 35 -4 27 4 35 2 35
-10 0 -8 11 -18 25 -21 14 -4 25 -13 25 -21 0 -13 11 -14 65 -9 58 6 65 5 65
-11 0 -13 6 -16 25 -13 14 3 25 1 25 -3 0 -5 29 -9 65 -9 53 0 65 -3 65 -16 0
-14 10 -15 70 -9 59 6 70 5 70 -8 0 -8 11 -18 25 -21 15 -4 25 -14 25 -24 0
-16 7 -18 61 -14 42 3 64 1 69 -8 4 -7 42 -14 94 -17 70 -5 86 -9 86 -22 0
-13 11 -15 70 -13 60 3 70 1 70 -13 0 -9 5 -13 10 -10 10 6 40 -17 40 -32 0
-4 29 -6 65 -5 56 3 65 1 65 -13 0 -13 6 -16 25 -13 14 3 25 1 25 -3 0 -5 86
-9 190 -9 117 0 190 4 190 10 0 5 13 7 30 3 24 -4 30 -2 30 12 0 10 5 15 13
12 6 -3 19 -8 28 -12 13 -5 18 2 23 35 7 44 6 44 104 24 19 -4 22 0 22 23 0
42 20 104 31 98 5 -4 9 12 9 35 0 25 4 39 10 35 6 -3 10 4 10 17 0 13 9 30 20
38 12 8 20 26 20 42 0 18 5 28 15 28 10 0 15 10 15 30 0 23 4 30 20 30 15 0
20 7 20 25 0 22 4 25 33 25 58 0 107 -12 107 -26 0 -9 12 -14 35 -14 19 0 35
-4 35 -9 0 -5 10 -11 23 -13 13 -2 23 -11 25 -23 3 -19 8 -21 67 -17 53 4 65
1 65 -10 0 -11 7 -14 25 -10 14 2 25 0 25 -6 0 -6 25 -8 65 -4 56 4 65 2 65
-12 0 -14 30 -16 315 -16 283 0 315 2 315 16 0 14 10 16 65 12 36 -2 65 0 65
4 0 4 11 8 25 8 14 0 25 5 25 11 0 8 21 10 65 7 56 -3 65 -2 65 13 0 18 26 33
41 23 5 -3 9 2 9 10 0 17 28 20 93 10 33 -6 37 -10 37 -35 0 -16 5 -29 10 -29
6 0 10 -16 10 -36 0 -21 4 -33 10 -29 14 9 40 -20 40 -45 0 -12 5 -18 10 -15
6 4 10 -8 10 -29 0 -20 4 -36 10 -36 11 0 30 -64 30 -103 0 -23 3 -27 23 -23
97 20 96 20 103 -24 6 -39 17 -50 29 -30 10 16 35 12 35 -6 0 -12 7 -15 25
-12 14 3 25 1 25 -5 0 -5 26 -8 65 -5 57 3 65 2 65 -14 0 -16 11 -18 125 -18
104 0 125 2 125 15 0 12 14 15 65 15 36 0 65 4 65 9 0 4 11 6 25 3 19 -3 25 0
25 13 0 14 9 16 65 13 36 -1 65 1 65 5 0 24 27 35 78 30 44 -5 52 -3 52 11 0
14 14 16 95 16 78 0 95 3 95 15 0 14 30 18 158 19 12 0 22 6 22 14 0 11 14 13
65 10 59 -4 64 -2 67 17 2 12 12 21 26 23 12 2 22 10 22 19 0 12 8 14 35 10
26 -4 35 -2 35 9 0 8 10 14 25 14 14 0 25 5 25 11 0 7 14 10 35 7 25 -3 35 0
35 10 0 12 12 13 65 7 46 -5 65 -3 65 5 0 17 28 42 40 35 5 -3 10 1 10 9 0 11
10 16 31 16 17 0 37 7 45 15 8 8 37 17 64 21 28 4 50 11 50 16 0 6 28 8 65 6
57 -3 65 -1 65 15 0 11 10 20 30 24 17 3 30 12 30 20 0 11 7 13 30 8 23 -5 30
-3 30 9 0 11 9 16 30 16 17 0 30 4 30 8 0 4 16 6 35 4 28 -3 35 -1 35 13 0 15
7 17 64 11 62 -7 64 -7 70 17 4 19 11 24 26 20 14 -4 20 0 20 12 0 15 6 17 35
12 21 -3 35 -2 35 4 0 18 28 39 44 33 11 -4 16 0 16 11 0 13 7 16 30 13 24 -4
30 -1 30 13 0 19 33 35 50 24 5 -3 10 1 10 9 0 12 10 16 35 16 25 0 35 4 35
15 0 9 12 18 30 22 17 3 30 12 30 19 0 10 9 12 30 8 20 -4 30 -2 30 5 0 20 23
38 42 33 12 -3 18 1 18 13 0 13 6 15 30 10 23 -5 30 -3 30 8 0 9 13 18 30 22
17 4 30 13 30 22 0 11 8 14 35 11 28 -3 35 -1 35 13 0 19 33 34 50 24 5 -3 10
1 10 11 0 12 7 15 30 12 24 -4 30 -1 30 13 0 11 11 20 30 24 17 4 30 11 30 16
0 5 16 9 35 9 25 0 35 4 35 15 0 9 12 18 30 22 17 3 30 10 30 15 0 6 14 8 30
6 26 -4 30 -1 30 19 0 13 5 23 10 23 6 0 10 7 10 16 0 13 8 15 38 12 20 -3 45
-8 55 -12 14 -7 17 -3 17 20 0 48 9 54 73 45 l57 -8 0 40 c0 37 2 39 25 35 21
-4 25 -1 25 18 0 13 5 24 10 24 6 0 10 6 10 14 0 9 7 12 20 9 14 -4 20 0 20
10 0 10 13 18 35 23 20 3 35 12 35 20 0 17 1 17 34 4 24 -9 26 -7 26 15 0 14
5 25 10 25 6 0 10 7 10 15 0 12 9 14 43 9 23 -3 48 -7 55 -10 8 -2 12 8 12 32
0 35 1 36 30 32 29 -4 30 -3 30 34 0 40 8 45 41 28 17 -10 19 -7 19 30 0 41 0
41 30 35 29 -6 30 -6 30 34 0 39 0 40 30 31 30 -9 30 -8 30 30 l0 39 32 -10
c18 -5 34 -9 35 -9 2 0 3 18 3 40 0 41 8 47 41 30 17 -10 19 -7 19 30 0 41 0
41 30 35 30 -6 30 -6 30 35 0 37 2 40 19 30 33 -17 41 -12 41 29 l0 40 32 -10
c18 -5 34 -9 35 -9 2 0 3 18 3 41 0 33 3 40 15 35 8 -3 22 -9 30 -12 12 -5 15
2 15 35 0 40 1 40 30 35 29 -6 30 -5 30 31 0 36 1 36 30 30 29 -6 30 -5 30 30
0 36 0 36 35 29 34 -6 35 -5 35 25 0 17 -4 31 -10 31 -5 0 -10 18 -10 41 0 24
4 38 10 34 6 -3 10 1 10 10 0 22 27 48 41 39 8 -5 9 13 4 65 -6 63 -5 70 9 65
14 -5 16 8 16 120 0 108 -2 126 -16 126 -13 0 -15 9 -9 64 7 62 7 63 -19 70
-17 4 -26 13 -26 27 0 11 -4 17 -10 14 -6 -4 -10 10 -10 34 0 23 5 41 10 41 6
0 10 15 10 34 0 34 -1 35 -35 29 -34 -5 -35 -5 -35 26 0 31 -2 32 -30 26 -29
-6 -30 -6 -30 34 0 39 -1 40 -26 31 -35 -14 -34 -15 -34 30 0 39 -1 39 -30 34
-29 -6 -30 -5 -30 30 0 20 -1 36 -3 36 -1 0 -17 -4 -35 -9 l-32 -10 0 40 c0
40 -1 40 -30 34 -29 -6 -30 -6 -30 34 0 39 -1 40 -25 31 -24 -9 -25 -8 -25 30
0 27 -4 38 -12 36 -7 -3 -34 -7 -60 -10 -38 -4 -48 -3 -48 9 0 8 -4 15 -10 15
-5 0 -10 9 -10 21 0 18 -4 20 -30 14 -23 -5 -30 -3 -30 8 0 9 -14 17 -35 21
-22 5 -35 13 -35 23 0 9 -6 13 -15 9 -9 -3 -15 0 -15 9 0 8 -4 15 -10 15 -5 0
-10 11 -10 25 0 22 -3 24 -30 18 -29 -5 -30 -5 -30 35 l0 41 -32 -10 c-62 -17
-76 -13 -84 27 l-6 35 -55 -7 c-62 -7 -73 0 -73 50 0 23 -3 27 -17 21 -42 -17
-53 -17 -53 0 0 12 -6 16 -18 13 -19 -5 -42 13 -42 33 0 7 -10 9 -30 6 -21 -5
-30 -3 -30 7 0 7 -13 16 -30 20 -18 3 -30 12 -30 21 0 11 -10 15 -35 15 -19 0
-35 4 -35 9 0 5 -13 11 -30 15 -20 4 -30 11 -30 24 0 15 -6 18 -30 14 -23 -3
-30 0 -30 12 0 9 -6 13 -15 10 -14 -6 -45 17 -45 33 0 5 -16 7 -35 5 -26 -3
-35 0 -35 11 0 8 -11 18 -25 21 -14 4 -25 13 -25 21 0 13 -11 14 -65 9 -58 -6
-65 -5 -65 11 0 14 -6 16 -35 11 -22 -4 -35 -3 -35 4 0 5 -13 10 -30 10 -18 0
-30 5 -30 13 0 9 -10 12 -30 9 -23 -3 -30 0 -30 12 0 10 -8 16 -21 16 -12 0
-23 8 -26 20 -5 17 -14 20 -69 20 -46 0 -64 4 -64 13 0 7 -10 13 -22 13 -135
1 -158 4 -158 22 0 15 -9 17 -70 14 -57 -3 -70 -1 -70 11 0 10 -7 13 -20 10
-14 -4 -21 1 -25 19 -6 23 -9 24 -71 20 -53 -4 -64 -2 -64 11 0 12 -8 15 -35
10 -24 -4 -35 -2 -35 6 0 7 -8 11 -17 10 -32 -3 -43 1 -43 14 0 9 -10 12 -30
9 -22 -3 -30 0 -30 11 0 8 -13 17 -30 21 -18 3 -30 12 -30 21 0 12 -13 15 -64
15 -38 0 -66 5 -68 11 -2 6 -41 13 -91 16 -64 4 -87 9 -87 19 0 12 -124 14
-745 14 -656 0 -745 -2 -745 -15z m-1324 -705 c71 -6 154 -17 184 -25 152 -39
229 -63 251 -78 13 -10 41 -22 62 -28 21 -6 60 -23 86 -40 27 -16 52 -29 56
-29 10 0 102 -61 180 -119 135 -100 314 -301 406 -453 117 -194 199 -436 220
-653 16 -164 6 -407 -22 -511 -11 -43 -29 -112 -38 -151 -10 -40 -23 -78 -28
-85 -6 -7 -19 -38 -31 -68 -32 -88 -86 -183 -179 -320 -100 -146 -326 -350
-493 -445 -25 -14 -52 -29 -60 -34 -27 -17 -173 -80 -235 -102 -86 -30 -210
-55 -369 -75 -173 -22 -312 -11 -551 41 -145 32 -364 131 -505 228 -108 74
-126 89 -218 179 -99 96 -143 150 -219 263 -81 122 -93 141 -93 149 0 4 -12
31 -26 60 -72 138 -135 381 -154 584 -11 126 -2 274 25 392 8 36 21 94 29 130
35 158 144 384 258 539 39 53 117 141 172 196 90 89 131 123 256 210 63 43
295 153 371 176 170 50 219 60 319 68 154 12 203 12 346 1z"/>
<path d="M5285 8109 c-477 -74 -871 -360 -1084 -786 -95 -191 -139 -360 -148
-579 -12 -285 39 -498 187 -790 167 -327 370 -534 669 -684 580 -290 1297
-151 1723 335 176 201 308 466 365 735 26 121 26 439 0 560 -101 471 -391 832
-855 1065 -121 60 -222 96 -351 126 -99 23 -405 34 -506 18z"/>
<path d="M11608 5273 c-17 -2 -28 -11 -28 -20 0 -13 -10 -15 -65 -9 -54 5 -65
4 -65 -9 0 -8 -11 -17 -25 -21 -14 -3 -25 -13 -25 -21 0 -11 -9 -14 -35 -11
-19 2 -35 0 -35 -4 0 -17 -25 -35 -42 -30 -12 3 -18 -1 -18 -13 0 -14 -7 -16
-30 -13 -24 4 -30 1 -30 -13 0 -19 -33 -35 -50 -24 -5 3 -10 -1 -10 -10 0 -13
-7 -15 -34 -10 -33 7 -33 6 -40 -35 -7 -44 -6 -44 -103 -24 -18 3 -23 0 -23
-15 0 -44 -9 -50 -66 -44 l-54 6 0 -36 c0 -35 0 -36 -32 -26 -18 5 -34 9 -35
9 -2 0 -3 -16 -3 -35 0 -19 5 -35 10 -35 6 0 10 -18 10 -41 0 -22 -4 -38 -9
-35 -5 3 -11 -8 -15 -24 -3 -18 -12 -30 -21 -30 -12 0 -15 -13 -15 -65 0 -37
-4 -65 -10 -65 -5 0 -10 -16 -10 -35 0 -28 -4 -35 -19 -35 -11 0 -26 -3 -35
-6 -10 -4 -16 -1 -16 9 0 17 -48 27 -127 27 -40 0 -53 4 -53 15 0 12 -13 15
-60 15 -44 0 -60 -4 -60 -14 0 -10 -27 -15 -117 -18 -77 -3 -118 -8 -121 -16
-2 -8 -27 -12 -68 -12 -51 0 -64 -3 -64 -15 0 -9 -12 -18 -30 -21 -16 -4 -30
-13 -30 -20 0 -10 -9 -12 -30 -7 -20 3 -30 1 -30 -6 0 -20 -23 -38 -42 -33
-12 3 -18 -1 -18 -11 0 -13 -6 -14 -32 -6 -18 5 -33 9 -34 9 -1 0 -4 -18 -8
-41 l-7 -41 -46 7 c-25 4 -52 9 -59 12 -11 4 -14 -5 -14 -36 0 -39 -1 -41 -25
-35 -21 5 -25 3 -25 -15 0 -12 -4 -21 -10 -21 -5 0 -10 -7 -10 -15 0 -13 -4
-14 -20 -5 -18 10 -20 8 -20 -30 l0 -41 -35 7 c-32 6 -35 4 -35 -19 0 -13 -3
-38 -6 -54 -6 -28 -10 -31 -62 -37 -30 -4 -58 -3 -61 1 -8 10 -381 10 -381 1
0 -5 -11 -8 -25 -8 -14 0 -25 -5 -25 -11 0 -8 -21 -10 -65 -7 -56 3 -65 2 -65
-13 0 -18 -26 -33 -41 -23 -5 3 -9 -2 -9 -10 0 -12 -10 -16 -35 -16 -25 0 -35
-4 -35 -15 0 -9 -12 -18 -30 -21 -16 -4 -30 -13 -30 -20 0 -10 -9 -12 -30 -7
-20 3 -30 1 -30 -6 0 -20 -23 -38 -42 -33 -12 3 -18 -1 -18 -13 0 -15 -6 -17
-35 -12 -32 5 -35 4 -35 -19 0 -14 -4 -22 -10 -19 -5 3 -10 -1 -10 -11 0 -14
-7 -15 -54 -10 l-54 7 -6 -36 c-6 -32 -10 -36 -29 -31 -12 4 -37 9 -54 13 -32
5 -33 5 -33 -29 0 -33 -1 -34 -35 -30 -33 4 -35 3 -35 -27 0 -17 5 -31 10 -31
14 0 12 -49 -3 -64 -7 -7 -51 -15 -100 -19 -74 -5 -87 -4 -87 9 0 13 -10 14
-65 9 -46 -5 -65 -4 -65 4 0 7 -9 9 -26 5 -20 -5 -26 -2 -31 15 -5 20 -10 21
-189 21 -181 0 -184 0 -184 -21 0 -20 -3 -21 -65 -14 -39 4 -65 3 -65 -3 0 -5
-11 -7 -25 -4 -18 3 -25 0 -25 -12 0 -13 -12 -16 -65 -16 -53 0 -65 -3 -65
-16 0 -13 -7 -15 -35 -11 -19 3 -35 2 -35 -4 0 -5 -11 -9 -25 -9 -14 0 -25 -4
-25 -10 0 -6 -40 -10 -100 -10 -79 0 -100 -3 -100 -14 0 -8 -15 -17 -35 -20
-20 -4 -35 -13 -35 -21 0 -7 -8 -12 -17 -10 -76 15 -93 14 -93 -6 0 -22 -22
-49 -39 -49 -6 0 -11 -7 -11 -15 0 -8 -10 -17 -22 -19 -48 -10 -128 -13 -128
-5 0 5 -11 9 -25 9 -17 0 -25 6 -25 16 0 15 -20 16 -220 10 -197 -7 -220 -6
-220 8 0 14 -21 16 -155 16 -135 0 -155 -2 -155 -16 0 -14 -14 -15 -125 -9
-108 6 -125 5 -125 -8 0 -11 -16 -17 -60 -22 -44 -5 -60 -11 -60 -22 0 -11 -5
-13 -18 -8 -9 4 -38 10 -64 12 -46 5 -48 7 -48 36 l0 30 -60 -6 -60 -7 0 39 0
40 -32 -10 c-45 -12 -98 -11 -98 2 0 8 -21 10 -65 7 -36 -2 -65 0 -65 4 0 4
-11 8 -25 8 -16 0 -25 6 -25 15 0 13 -42 15 -315 15 -273 0 -315 -2 -315 -15
0 -9 -9 -15 -25 -15 -14 0 -25 -4 -25 -8 0 -4 -29 -6 -65 -4 -44 3 -65 1 -65
-7 0 -7 -25 -11 -70 -11 l-70 0 0 39 c0 34 -3 38 -20 34 -11 -3 -20 0 -20 6 0
6 -7 11 -15 11 -9 0 -15 9 -15 25 0 14 5 25 10 25 6 0 10 16 10 35 0 33 -2 35
-27 29 -16 -3 -40 -10 -55 -14 -22 -7 -28 -6 -28 6 0 7 -4 14 -10 14 -5 0 -10
11 -10 25 0 22 -3 24 -30 19 -19 -4 -30 -2 -30 5 0 6 -13 11 -30 11 -25 0 -30
4 -30 24 0 18 -5 23 -17 21 -10 -2 -42 -6 -70 -9 -43 -4 -53 -2 -53 10 0 9 -6
14 -12 12 -15 -5 -38 15 -38 34 0 10 -10 13 -35 10 -27 -3 -35 0 -35 11 0 9
-13 18 -30 22 -17 4 -30 12 -30 19 0 8 -10 11 -30 8 -23 -3 -30 -1 -30 13 0
12 -6 16 -20 12 -15 -4 -22 1 -26 20 -6 24 -8 24 -70 17 -53 -5 -64 -4 -64 8
0 17 -58 28 -141 28 -37 0 -49 4 -49 15 0 13 -21 15 -125 15 -112 0 -125 -2
-125 -17 0 -16 -13 -18 -100 -20 l-100 -2 0 25 c0 19 -4 25 -15 21 -10 -5 -16
4 -21 28 -3 19 -11 35 -16 35 -6 0 -7 25 -3 68 l7 69 -31 -5 c-30 -4 -31 -3
-31 32 0 34 -1 35 -26 26 -35 -14 -34 -14 -34 28 0 37 -1 38 -30 34 -29 -4
-30 -3 -30 32 0 24 -4 34 -13 32 -6 -3 -31 -7 -54 -10 -34 -5 -43 -3 -43 9 0
8 -4 15 -10 15 -5 0 -10 11 -10 24 0 18 -5 23 -17 21 -66 -13 -103 -12 -103 2
0 12 -10 14 -60 8 -41 -5 -60 -4 -60 4 0 8 -50 11 -160 11 -97 0 -160 -4 -160
-10 0 -5 -13 -7 -30 -3 -20 4 -30 2 -30 -7 0 -8 -9 -11 -24 -8 -20 4 -25 0
-28 -24 -5 -32 4 -42 103 -111 30 -20 70 -48 89 -62 19 -13 52 -33 72 -44 20
-12 40 -26 43 -32 4 -6 26 -19 49 -30 22 -11 70 -37 106 -59 36 -22 81 -47
100 -56 19 -9 49 -26 65 -39 17 -12 40 -25 52 -29 12 -4 36 -23 54 -43 90
-103 74 -209 -44 -294 -61 -44 -119 -41 -224 14 -141 72 -292 157 -299 168 -3
6 -25 19 -48 30 -22 11 -68 39 -101 64 -33 24 -75 52 -93 61 -19 10 -63 46
-98 80 l-64 63 0 -117 c0 -64 -3 -140 -6 -169 -6 -49 -6 -52 14 -46 34 8 52
-19 52 -77 0 -42 3 -51 15 -46 8 3 15 1 15 -4 0 -6 7 -10 15 -10 8 0 15 -9 15
-21 0 -16 4 -19 20 -14 14 5 20 2 20 -9 0 -9 5 -16 10 -16 6 0 10 -11 10 -25
0 -23 2 -24 20 -15 16 9 20 8 20 -5 0 -8 5 -15 10 -15 6 0 10 -11 10 -25 0
-18 4 -23 16 -18 19 7 34 -13 34 -44 0 -19 4 -22 30 -18 98 16 89 18 96 -25
l6 -39 64 6 c45 4 64 2 64 -6 0 -6 11 -11 25 -11 14 0 25 -3 25 -7 0 -5 83 -8
185 -8 102 0 185 3 185 8 0 4 5 7 10 7 6 0 10 -11 10 -25 0 -18 5 -25 20 -25
16 0 20 -7 20 -35 0 -19 5 -35 10 -35 6 0 10 -16 10 -35 0 -33 2 -35 20 -25
16 9 20 8 20 -6 0 -10 5 -14 15 -10 17 6 18 -6 9 -79 -7 -46 -7 -47 -40 -43
-33 4 -34 3 -34 -30 0 -32 -2 -34 -30 -30 -29 4 -30 3 -30 -34 0 -40 -8 -45
-41 -28 -17 10 -19 7 -19 -30 0 -41 0 -41 -30 -35 -29 6 -30 6 -30 -34 0 -39
0 -40 -30 -31 -30 9 -30 8 -30 -30 l0 -39 -32 10 c-18 5 -34 9 -35 9 -2 0 -3
-18 -3 -41 0 -33 -3 -40 -15 -35 -8 3 -22 9 -30 12 -12 5 -15 -2 -15 -36 0
-41 0 -42 -30 -35 -30 6 -30 6 -30 -35 0 -37 -2 -40 -19 -30 -33 17 -41 12
-41 -29 l0 -40 -32 10 c-18 5 -34 9 -35 9 -2 0 -3 -18 -3 -41 0 -29 -4 -40
-13 -36 -49 20 -47 21 -47 -22 0 -42 -8 -48 -41 -31 -17 10 -19 7 -19 -30 0
-41 0 -41 -30 -35 -29 6 -30 6 -30 -34 0 -39 0 -40 -30 -31 -30 9 -30 8 -30
-30 l0 -39 -32 10 c-18 5 -34 9 -35 9 -2 0 -3 -18 -3 -40 0 -45 1 -44 -34 -30
-25 9 -26 8 -26 -31 0 -40 -1 -40 -30 -34 -29 6 -30 5 -30 -30 0 -35 -1 -36
-30 -30 -29 6 -30 5 -30 -30 0 -37 -1 -37 -35 -33 -34 4 -35 3 -35 -29 0 -31
-1 -32 -31 -26 l-31 6 7 -73 c5 -52 4 -71 -4 -66 -7 5 -11 -2 -11 -16 0 -30
-15 -52 -29 -44 -7 5 -11 -3 -11 -23 0 -16 -6 -31 -12 -33 -18 -6 -19 -489 0
-495 6 -3 12 -18 12 -35 0 -22 4 -29 15 -25 10 5 16 -4 21 -28 3 -19 11 -35
16 -35 7 0 8 -24 3 -66 l-7 -67 31 6 c30 6 31 5 31 -29 0 -36 0 -36 35 -30 35
7 35 7 35 -29 0 -35 1 -36 30 -30 30 6 30 6 30 -35 0 -37 2 -40 19 -30 33 17
41 12 41 -28 0 -37 1 -38 30 -34 29 4 30 3 30 -32 0 -39 14 -45 51 -26 17 10
19 7 19 -30 0 -41 0 -41 30 -35 30 6 30 6 30 -35 0 -37 2 -40 19 -30 33 17 41
12 41 -28 0 -37 1 -38 30 -34 29 4 30 3 30 -32 0 -34 1 -35 30 -29 29 5 30 4
30 -32 0 -37 0 -37 35 -31 l35 7 0 -41 c0 -37 2 -40 19 -30 33 17 41 11 41
-30 0 -37 2 -40 19 -30 31 16 41 12 41 -15 l0 -25 262 0 261 0 -24 27 c-13 15
-250 253 -526 529 -323 324 -510 518 -524 546 -30 56 -32 174 -5 228 10 19
302 320 650 669 694 696 677 682 794 680 76 0 135 -30 188 -96 50 -61 64 -131
45 -218 -14 -63 -46 -98 -509 -562 -166 -166 -302 -307 -302 -312 0 -5 5 -13
11 -16 5 -4 424 -6 931 -6 590 1 934 -3 958 -9 60 -16 136 -83 157 -138 25
-65 23 -164 -5 -219 -23 -44 -88 -103 -137 -125 -24 -10 -218 -13 -955 -15
-509 -1 -931 -2 -937 -3 -7 0 -13 -8 -13 -17 0 -9 177 -195 393 -412 365 -367
395 -399 405 -443 7 -26 12 -56 12 -67 0 -20 5 -21 185 -21 l185 0 0 28 c0 15
3 51 7 81 5 42 3 52 -7 46 -10 -6 -11 7 -5 64 6 63 5 70 -9 65 -12 -5 -16 0
-16 23 0 17 -8 34 -20 43 -11 8 -20 23 -20 33 0 11 -4 15 -11 11 -9 -5 -10 12
-5 66 l7 73 -30 -6 c-31 -6 -31 -6 -31 38 l0 45 410 0 c358 0 410 2 410 15 0
9 9 15 25 15 14 0 25 4 25 8 0 4 29 6 65 4 56 -4 65 -2 65 13 0 11 6 15 18 11
9 -3 38 -8 64 -12 l48 -6 0 42 c0 36 2 41 18 34 9 -4 36 -9 59 -12 l43 -4 0
34 c0 33 1 34 31 30 l31 -5 -7 67 c-5 42 -4 66 3 66 5 0 12 14 16 30 3 18 12
30 21 30 12 0 15 13 15 60 0 33 4 60 10 60 6 0 10 48 10 125 0 77 -4 125 -10
125 -6 0 -10 29 -10 66 0 55 -3 65 -15 60 -11 -4 -17 3 -22 24 -3 17 -10 30
-15 30 -6 0 -7 26 -3 68 l7 69 -31 -5 c-29 -4 -31 -2 -31 28 l0 33 -60 -6 -60
-7 0 41 c0 35 -2 40 -17 34 -10 -4 -39 -10 -65 -12 -37 -4 -48 -2 -48 9 0 11
-12 13 -62 8 -35 -4 -65 -3 -66 2 -2 4 -15 8 -28 8 -15 0 -24 6 -24 15 0 13
-52 15 -410 15 l-410 0 0 46 c0 46 0 46 30 42 l31 -5 -7 70 c-5 51 -4 68 5 63
7 -5 11 2 11 18 0 16 7 27 20 31 14 4 20 15 20 36 0 20 5 29 16 29 13 0 15 10
8 66 -4 40 -3 65 3 61 5 -3 9 45 8 119 0 68 -3 124 -7 124 -5 0 -8 18 -8 40
l0 40 95 0 c88 0 95 2 95 20 0 18 5 19 65 13 43 -4 65 -2 65 5 0 5 9 8 20 5
14 -4 20 0 20 11 0 12 10 16 40 16 l40 0 0 -41 0 -42 36 6 37 6 -7 -69 c-8
-79 -10 -77 72 -61 l42 8 0 -39 c0 -33 3 -38 18 -34 9 3 38 8 65 12 40 5 47 4
47 -11 0 -15 8 -16 65 -10 40 5 65 4 65 -2 0 -6 11 -8 25 -5 20 3 25 0 25 -16
0 -21 2 -21 315 -20 306 1 315 2 315 21 0 15 5 18 25 15 14 -3 25 -1 25 5 0 6
25 7 65 2 56 -6 65 -4 65 9 0 18 15 19 78 7 l42 -8 0 36 0 37 40 -4 c37 -4 40
-7 40 -33 0 -24 4 -29 25 -29 22 0 25 -4 25 -36 l0 -37 65 6 65 6 0 -39 c0
-37 2 -39 23 -31 12 5 55 12 95 16 60 6 72 5 72 -8 0 -18 49 -27 158 -27 66 0
82 -3 82 -15 0 -12 17 -15 95 -15 78 0 95 3 95 15 0 13 31 15 220 15 121 0
220 4 220 9 0 4 11 6 25 3 18 -3 25 0 25 12 0 18 12 19 83 7 45 -8 47 -7 47
17 0 22 3 24 35 20 24 -3 35 0 35 9 0 9 8 11 25 7 23 -6 25 -4 25 30 l0 36 73
0 c39 0 95 3 124 6 l52 7 7 -42 c5 -32 10 -40 23 -37 9 2 33 7 53 11 38 6 38
6 44 -35 6 -35 9 -40 27 -34 12 4 110 6 219 6 l198 -1 0 24 c0 22 3 24 30 19
23 -5 30 -3 30 10 0 12 7 14 30 10 24 -5 30 -3 30 10 0 10 11 19 30 23 17 3
30 12 30 20 0 11 8 14 30 11 17 -3 30 0 30 4 0 17 30 40 45 34 9 -3 15 0 15 9
0 12 19 15 100 15 78 0 100 3 100 14 0 10 23 15 87 19 50 3 89 10 91 16 2 6
17 11 33 11 22 0 29 5 29 20 0 11 5 20 10 20 6 0 10 6 10 14 0 11 8 12 38 5
66 -15 67 -15 79 58 7 37 17 69 23 71 5 2 10 10 10 17 0 21 26 25 120 18 66
-4 90 -10 90 -19 0 -11 36 -14 185 -14 158 0 185 2 185 15 0 14 30 18 158 19
12 0 22 6 22 14 0 11 15 13 65 10 62 -3 65 -2 65 20 0 12 5 22 10 22 6 0 10 7
10 15 0 9 6 12 15 9 9 -4 15 0 15 10 0 9 7 16 15 16 8 0 15 4 15 9 0 5 9 7 20
4 12 -3 20 0 20 7 0 8 11 11 30 8 26 -4 30 -1 30 19 0 13 5 23 10 23 6 0 10 6
10 14 0 9 7 12 20 9 15 -4 20 0 20 16 0 11 5 21 10 21 6 0 10 7 10 16 0 11 6
14 20 9 17 -5 20 -2 20 20 0 20 4 26 15 21 9 -3 15 0 15 10 0 10 6 14 15 10
10 -4 15 1 15 14 0 11 7 20 15 20 8 0 15 6 15 14 0 9 7 12 20 9 17 -5 20 0 20
31 0 20 5 36 10 36 6 0 10 8 10 19 0 15 10 19 53 24 28 4 53 3 55 -1 1 -4 31
-6 67 -4 55 4 65 2 65 -12 0 -14 17 -16 125 -16 109 0 125 2 125 16 0 14 9 16
65 12 40 -4 65 -2 65 4 0 6 11 8 25 6 18 -4 25 -1 25 10 0 12 11 13 65 7 61
-6 65 -5 65 14 0 12 5 21 10 21 6 0 10 7 10 15 0 8 7 15 15 15 8 0 15 7 15 15
0 9 12 18 30 22 17 3 30 11 30 19 0 10 8 10 32 3 18 -5 33 -9 34 -9 1 0 4 19
8 41 l7 41 59 -4 c33 -2 60 0 60 5 0 15 29 39 40 32 5 -3 10 1 10 11 0 15 8
16 70 10 66 -6 70 -5 70 14 0 16 7 20 30 20 19 0 30 5 30 14 0 11 7 13 30 6
29 -8 30 -8 30 25 0 33 1 34 31 28 l31 -6 -7 61 -7 60 31 7 c31 7 31 7 31 76
l0 69 40 0 c22 0 40 -4 40 -10 0 -6 58 -10 155 -10 117 0 155 3 155 13 0 8 17
11 60 9 40 -3 60 0 60 8 0 19 24 37 42 32 12 -3 18 1 18 13 0 14 7 16 30 13
20 -3 30 0 30 9 0 8 12 13 30 13 17 0 30 5 30 10 0 7 13 8 35 4 29 -5 35 -3
35 11 0 13 7 16 30 13 17 -3 30 0 30 4 0 17 30 40 45 34 9 -3 15 1 15 10 0 12
7 15 30 12 23 -4 30 0 32 16 2 12 9 20 16 19 6 -2 12 4 12 12 0 17 18 18 73 6
l37 -9 0 38 c0 34 2 37 25 32 22 -4 25 -1 25 28 0 30 2 32 31 28 l31 -5 -6 59
c-6 49 -4 58 9 58 8 0 15 4 15 9 0 5 9 7 21 4 20 -6 20 -3 13 67 -4 48 -3 71
3 67 6 -4 13 14 16 43 7 61 12 70 38 70 18 0 19 8 19 125 0 117 -1 125 -19
125 -16 0 -20 10 -26 65 -4 36 -11 65 -16 65 -5 0 -9 13 -9 29 0 24 -3 28 -20
24 -11 -3 -20 0 -20 6 0 5 -7 8 -15 5 -11 -5 -15 1 -15 25 0 17 5 31 10 31 6
0 10 16 10 35 0 34 -1 34 -32 28 -18 -3 -41 -10 -50 -14 -30 -16 -38 -10 -44
31 -6 36 -9 39 -31 34 -16 -4 -28 -2 -34 7 -7 11 -52 14 -221 15 -117 1 -225
0 -240 -3z m354 -292 c60 -38 103 -110 102 -168 -1 -31 -11 -57 -37 -96 -35
-53 -107 -105 -275 -198 -26 -14 -76 -43 -112 -64 -100 -59 -160 -92 -220
-121 -30 -15 -66 -35 -80 -45 -14 -9 -49 -25 -78 -35 -46 -16 -58 -16 -100 -5
-61 16 -86 33 -122 83 -24 33 -30 51 -30 95 0 106 45 156 217 245 54 27 105
56 113 63 8 7 35 22 60 34 25 12 74 39 110 61 36 22 81 48 100 57 19 10 48 26
65 38 136 94 206 107 287 56z m-1393 -707 c51 -10 120 -81 132 -133 16 -71 2
-128 -42 -176 -21 -22 -48 -46 -61 -52 -29 -14 -168 -78 -233 -108 -27 -13
-88 -40 -135 -60 -47 -20 -116 -52 -155 -70 -38 -18 -81 -37 -95 -40 -14 -4
-41 -17 -60 -29 -27 -16 -51 -21 -105 -21 -67 0 -73 2 -117 38 -63 51 -86 117
-69 191 14 62 52 113 99 133 21 8 64 28 97 43 33 16 94 43 135 60 98 42 241
107 405 186 92 44 134 52 204 38z m-1371 -618 c51 -32 79 -75 88 -134 7 -48
-9 -116 -34 -148 -23 -28 -146 -90 -207 -105 -27 -7 -59 -18 -70 -25 -11 -7
-51 -22 -90 -32 -38 -11 -88 -28 -109 -37 -22 -9 -69 -25 -105 -35 -36 -10
-111 -32 -166 -49 -120 -37 -154 -38 -220 -8 -91 43 -128 151 -86 251 22 51
100 115 141 116 14 0 57 12 95 26 39 14 102 33 140 43 39 10 84 25 101 34 18
9 54 21 80 27 27 6 72 22 99 35 28 13 68 26 90 30 22 4 51 14 64 22 58 37 119
34 189 -11z m-6776 -71 c37 -7 77 -20 90 -29 13 -8 50 -22 83 -31 33 -10 74
-24 90 -33 29 -15 127 -46 300 -97 102 -30 197 -66 218 -83 25 -21 65 -94 72
-133 9 -51 -31 -127 -91 -173 -40 -31 -55 -36 -99 -36 -29 0 -72 7 -96 16 -24
9 -82 26 -129 39 -106 30 -200 60 -265 87 -27 11 -81 29 -118 39 -38 11 -78
26 -90 33 -12 7 -43 19 -68 25 -29 8 -63 29 -96 59 -43 40 -52 55 -58 94 -11
76 2 125 47 174 59 63 99 73 210 49z m5279 -354 c75 -34 121 -99 123 -175 1
-42 -5 -61 -32 -102 -41 -65 -106 -96 -247 -119 -55 -8 -120 -22 -145 -30 -25
-7 -106 -23 -180 -35 -74 -12 -162 -28 -195 -37 -33 -8 -95 -16 -137 -17 -71
-1 -79 1 -114 30 -51 41 -71 70 -85 125 -11 41 -10 53 6 95 10 26 32 63 49 81
27 29 44 36 141 57 61 13 162 32 225 41 63 9 138 22 165 30 28 7 97 23 155 34
58 10 116 24 130 30 40 16 94 13 141 -8z m-3811 -61 c19 -6 73 -15 120 -20 47
-6 128 -19 180 -30 53 -11 171 -27 263 -35 197 -19 238 -36 295 -120 30 -44
33 -56 30 -101 -6 -72 -56 -140 -122 -168 -46 -18 -56 -19 -155 -7 -58 6 -149
16 -201 22 -52 5 -140 18 -195 29 -55 10 -149 26 -209 35 -147 21 -201 49
-238 125 -35 70 -35 112 0 175 21 40 38 56 81 78 58 29 95 33 151 17z m2329
-184 c45 -32 61 -56 81 -122 22 -74 -28 -172 -109 -214 -48 -24 -604 -38 -819
-21 -112 10 -134 19 -178 76 -55 72 -49 173 14 239 70 73 58 71 538 71 l431 0
42 -29z"/>
</g>
</svg>
